<svg width="47" height="26" viewBox="0 0 47 26" fill="none" xmlns="http://www.w3.org/2000/svg">
<path d="M13.508 26H2.132C1.676 26 1.34 25.904 1.124 25.712C0.932 25.496 0.836 25.16 0.836 24.704V20.492C0.836 20.036 0.932 19.712 1.124 19.52C1.34 19.304 1.676 19.196 2.132 19.196H11.816C12.128 19.196 12.356 19.1 12.5 18.908C12.668 18.692 12.752 18.44 12.752 18.152C12.752 17.744 12.668 17.444 12.5 17.252C12.356 17.06 12.128 16.952 11.816 16.928L6.416 16.172C4.736 15.932 3.38 15.38 2.348 14.516C1.34 13.652 0.836 12.212 0.836 10.196V6.416C0.836 4.376 1.496 2.816 2.816 1.736C4.136 0.631999 5.96 0.079999 8.288 0.079999H18.368C18.824 0.079999 19.148 0.187999 19.34 0.403999C19.556 0.595999 19.664 0.92 19.664 1.376V5.66C19.664 6.116 19.556 6.452 19.34 6.668C19.148 6.86 18.824 6.956 18.368 6.956H9.98C9.668 6.956 9.428 7.064 9.26 7.28C9.092 7.472 9.008 7.724 9.008 8.036C9.008 8.348 9.092 8.612 9.26 8.828C9.428 9.044 9.668 9.164 9.98 9.188L15.344 9.908C17.024 10.148 18.38 10.7 19.412 11.564C20.444 12.428 20.96 13.868 20.96 15.884V19.664C20.96 21.704 20.288 23.276 18.944 24.38C17.624 25.46 15.812 26 13.508 26ZM34.2941 7.64L32.6021 13.112H38.2541L36.5621 7.64C36.4661 7.424 36.3581 7.268 36.2381 7.172C36.1421 7.076 36.0221 7.028 35.8781 7.028H34.9781C34.8341 7.028 34.7021 7.076 34.5821 7.172C34.4861 7.268 34.3901 7.424 34.2941 7.64ZM32.2421 24.704C32.2421 25.16 32.1341 25.496 31.9181 25.712C31.7261 25.904 31.4021 26 30.9461 26H25.6541C25.1981 26 24.8621 25.904 24.6461 25.712C24.4541 25.496 24.3581 25.16 24.3581 24.704V15.2C24.3581 14.48 24.4661 13.652 24.6821 12.716C24.9221 11.78 25.2821 10.688 25.7621 9.44L28.8941 1.268C29.0381 0.859998 29.2541 0.559999 29.5421 0.368C29.8541 0.175999 30.2501 0.079999 30.7301 0.079999H40.4141C40.8701 0.079999 41.2421 0.175999 41.5301 0.368C41.8421 0.559999 42.0701 0.859998 42.2141 1.268L45.3461 9.44C45.8261 10.688 46.1741 11.78 46.3901 12.716C46.6301 13.652 46.7501 14.48 46.7501 15.2V24.704C46.7501 25.16 46.6421 25.496 46.4261 25.712C46.2341 25.904 45.9101 26 45.4541 26H40.0181C39.5381 26 39.1781 25.904 38.9381 25.712C38.7221 25.496 38.6141 25.16 38.6141 24.704V19.664H32.2421V24.704Z" fill="#60ADFF"/>
</svg>
